<?xml version="1.0" encoding="iso-8859-1"?>
<!-- Uploaded to: SVG Repo, www.svgrepo.com, Generator: SVG Repo Mixer Tools -->
<svg fill="#000000" height="800px" width="800px" version="1.1" id="Layer_1" xmlns="http://www.w3.org/2000/svg" xmlns:xlink="http://www.w3.org/1999/xlink" 
	 viewBox="0 0 512 512" xml:space="preserve">
<g>
	<g>
		<path d="M503.983,495.949h-17.637V264.534c0-4.427-3.588-8.017-8.017-8.017c-4.428,0-8.017,3.589-8.017,8.017v231.415h-95.132
			v-308.91h95.132v34.739c0,4.427,3.588,8.017,8.017,8.017c4.428,0,8.017-3.589,8.017-8.017V102.062
			c0-2.023-0.765-3.972-2.142-5.456l-55.582-59.858c-3.124-3.366-8.625-3.366-11.749,0L361.29,96.606
			c-1.377,1.483-2.142,3.431-2.142,5.456v393.887h-39.549V367.147c0-4.427-3.588-8.017-8.017-8.017
			c-4.428,0-8.017,3.589-8.017,8.017v128.802h-95.132V281.101h95.132v43.29c0,4.427,3.588,8.017,8.017,8.017
			c4.428,0,8.017-3.589,8.017-8.017V196.124c0-2.023-0.765-3.972-2.142-5.456l-55.582-59.858c-3.124-3.366-8.625-3.366-11.749,0
			l-55.582,59.858c-1.377,1.483-2.142,3.431-2.142,5.456v299.825h-39.549V290.187c0-2.023-0.765-3.972-2.142-5.456l-55.582-59.858
			c-3.124-3.366-8.625-3.366-11.749,0l-55.582,59.858c-1.377,1.483-2.142,3.431-2.142,5.456v119.716
			c0,4.427,3.588,8.017,8.017,8.017c4.428,0,8.017-3.589,8.017-8.017v-34.739h95.132v120.785H41.687v-43.29
			c0-4.427-3.588-8.017-8.017-8.017c-4.428,0-8.017,3.589-8.017,8.017v43.29H8.017c-4.428,0-8.017,3.589-8.017,8.017
			s3.588,8.017,8.017,8.017h495.967c4.428,0,8.017-3.589,8.017-8.017S508.412,495.949,503.983,495.949z M436.109,171.005h-26.722
			v-43.825h26.722V171.005z M375.182,105.21l47.566-51.225l47.566,51.225v65.796h-18.171v-51.841c0-4.427-3.588-8.017-8.017-8.017
			H401.37c-4.428,0-8.017,3.589-8.017,8.017v51.841h-18.171V105.21z M269.361,265.068h-26.722v-43.825h26.722V265.068z
			 M208.434,199.272L256,148.048l47.566,51.225v65.796h-18.171v-51.841c0-4.427-3.588-8.017-8.017-8.017h-42.756
			c-4.428,0-8.017,3.589-8.017,8.017v51.841h-18.171V199.272z M102.614,359.131H75.891v-43.825h26.722V359.131z M136.818,359.131
			h-18.171v-51.841c0-4.427-3.588-8.017-8.017-8.017H67.875c-4.428,0-8.017,3.589-8.017,8.017v51.841H41.687v-65.796l47.566-51.225
			l47.566,51.225V359.131z"/>
	</g>
</g>
<g>
	<g>
		<path d="M97.804,265.068H80.701c-4.428,0-8.017,3.589-8.017,8.017c0,4.427,3.588,8.017,8.017,8.017h17.102
			c4.428,0,8.017-3.589,8.017-8.017C105.82,268.657,102.232,265.068,97.804,265.068z"/>
	</g>
</g>
<g>
	<g>
		<path d="M264.551,171.005h-17.102c-4.428,0-8.017,3.589-8.017,8.017s3.588,8.017,8.017,8.017h17.102
			c4.428,0,8.017-3.589,8.017-8.017S268.98,171.005,264.551,171.005z"/>
	</g>
</g>
<g>
	<g>
		<path d="M431.299,76.943h-17.102c-4.428,0-8.017,3.589-8.017,8.017s3.588,8.017,8.017,8.017h17.102
			c4.428,0,8.017-3.589,8.017-8.017S435.727,76.943,431.299,76.943z"/>
	</g>
</g>
<g>
	<g>
		<path d="M176.301,276.114l-81.236-85.511c-3.115-3.279-8.509-3.279-11.624,0L2.205,276.114c-3.05,3.21-2.919,8.284,0.29,11.333
			c3.21,3.05,8.283,2.921,11.335-0.29l75.423-79.394l75.424,79.393c3.254,3.425,8.927,3.241,11.961-0.376
			C179.222,283.699,179.069,279.027,176.301,276.114z"/>
	</g>
</g>
<g>
	<g>
		<path d="M343.05,182.052l-81.236-85.511c-3.115-3.279-8.509-3.279-11.624,0l-81.236,85.511c-3.05,3.21-2.919,8.284,0.29,11.333
			c3.208,3.049,8.283,2.92,11.333-0.291l75.424-79.393l75.424,79.393c3.254,3.425,8.927,3.241,11.961-0.376
			C345.971,189.637,345.817,184.965,343.05,182.052z"/>
	</g>
</g>
<g>
	<g>
		<path d="M509.796,87.989L428.56,2.477c-3.115-3.279-8.509-3.279-11.624,0L335.7,87.989c-3.05,3.21-2.919,8.284,0.29,11.333
			c3.21,3.05,8.283,2.921,11.335-0.29l75.423-79.394l75.424,79.393c3.254,3.425,8.927,3.241,11.961-0.376
			C512.717,95.574,512.563,90.901,509.796,87.989z"/>
	</g>
</g>
</svg>